<svg xmlns="http://www.w3.org/2000/svg" viewBox="0 0 160 160" role="img" aria-label="Mono avatar">
  <rect width="160" height="160" rx="36" fill="#c7c7c7"/>
  <circle cx="80" cy="56" r="32" fill="#8d8d8d"/>
  <circle cx="80" cy="62" r="26" fill="#f0d7c4"/>
  <path d="M48 144c4-28 22-42 32-42s28 14 32 42" fill="#fafafa"/>
  <circle cx="70" cy="60" r="3.5" fill="#2d2d2d"/>
  <circle cx="90" cy="60" r="3.5" fill="#2d2d2d"/>
  <path d="M69 74c4 5 18 5 22 0" fill="none" stroke="#2d2d2d" stroke-linecap="round" stroke-width="4"/>
  <path d="M60 44c6-12 18-16 28-16 11 0 22 5 30 17-6-3-12-4-18-4-15 0-28 6-40 17-2-4-2-9 0-14z" fill="#8d8d8d"/>
</svg>
